<?xml version="1.0" standalone="no"?>
<!DOCTYPE svg PUBLIC "-//W3C//DTD SVG 20010904//EN"
 "http://www.w3.org/TR/2001/REC-SVG-20010904/DTD/svg10.dtd">
<svg version="1.0" xmlns="http://www.w3.org/2000/svg"
 width="900.000000pt" height="900.000000pt" viewBox="0 0 900.000000 900.000000"
 preserveAspectRatio="xMidYMid meet">
<metadata>
Created by potrace 1.10, written by Peter Selinger 2001-2011
</metadata>
<g transform="translate(0.000000,900.000000) scale(0.100000,-0.100000)"
fill="#000000" stroke="none">
<path d="M1817 8980 c-4 -15 -14 -20 -37 -20 -79 0 -147 -64 -180 -169 -20
-63 -20 -68 -3 -121 22 -73 54 -120 106 -156 80 -56 67 -56 1123 -52 l971 3
16 -22 c10 -12 17 -26 17 -30 0 -13 241 -493 263 -523 30 -43 22 -62 -43 -99
-65 -38 -168 -138 -216 -212 -37 -55 -94 -173 -94 -195 0 -8 -8 -29 -17 -47
-16 -29 -18 -73 -20 -468 l-1 -435 -140 -210 c-76 -115 -148 -229 -159 -254
-43 -96 -53 -121 -53 -140 0 -10 -7 -45 -15 -77 -8 -31 -15 -87 -15 -123 0
-36 7 -92 15 -123 8 -32 15 -67 15 -77 0 -32 59 -161 109 -240 47 -75 508
-537 585 -587 81 -53 212 -113 246 -113 10 0 45 -7 77 -15 73 -19 173 -19 246
0 32 8 67 15 77 15 34 0 165 60 246 113 78 50 538 512 586 587 50 79 108 208
108 240 0 10 7 45 15 77 17 65 19 156 4 223 -5 25 -12 61 -15 80 -6 37 -24 88
-57 160 -11 25 -83 139 -160 255 l-139 209 -1 431 c-2 386 -4 434 -19 469 -10
21 -18 45 -18 52 0 21 -57 138 -97 197 -48 73 -169 189 -225 217 -53 26 -60
48 -31 90 22 30 263 510 263 523 0 4 7 18 17 30 l16 22 971 -3 c1050 -4 1042
-4 1122 50 42 28 85 84 98 128 24 81 24 92 5 154 -32 102 -101 166 -179 166
-23 0 -33 5 -37 20 -4 14 -14 20 -34 20 -44 0 -37 -29 24 -101 90 -106 97
-119 97 -174 -1 -37 -6 -56 -23 -75 -53 -59 25 -55 -1041 -60 -1113 -6 -1002
4 -1099 -95 -40 -41 -70 -88 -117 -182 -131 -266 -180 -373 -191 -420 -10 -44
-9 -54 10 -91 12 -24 70 -91 130 -150 112 -112 162 -185 199 -292 40 -114 42
-143 42 -510 0 -230 4 -378 11 -412 14 -63 45 -120 157 -288 156 -234 201
-356 202 -538 0 -74 -5 -109 -25 -168 -56 -168 -108 -238 -360 -489 -232 -232
-299 -282 -440 -330 -211 -72 -453 -30 -637 111 -91 70 -449 431 -495 500 -78
115 -111 210 -119 344 -13 199 23 306 189 557 59 89 122 192 140 230 l32 68 6
410 c6 440 8 460 64 582 33 73 62 110 197 250 86 90 119 132 123 155 9 49 -30
149 -156 399 -87 173 -120 227 -160 268 -93 94 14 85 -1094 91 -929 5 -981 6
-1007 23 -34 23 -68 80 -68 113 0 35 25 80 80 144 89 105 99 130 51 130 -20 0
-30 -6 -34 -20z"/>
<path d="M3940 8982 c0 -23 21 -53 84 -123 72 -79 85 -101 190 -314 100 -203
165 -300 222 -334 45 -27 66 -26 113 4 56 35 112 121 231 359 83 165 117 223
161 270 76 84 99 116 99 137 0 27 -46 26 -53 -1 -4 -15 -14 -20 -42 -20 -45 0
-81 -18 -121 -62 -34 -36 -290 -544 -300 -595 -3 -17 -12 -34 -20 -37 -24 -9
-42 4 -48 37 -10 51 -266 559 -300 595 -40 44 -76 62 -121 62 -28 0 -38 5 -42
20 -7 26 -53 28 -53 2z"/>
<path d="M730 7926 c-14 -9 -33 -15 -42 -16 -10 0 -41 -24 -70 -53 -62 -62
-93 -135 -86 -201 6 -53 50 -143 87 -176 15 -14 255 -140 534 -279 l506 -252
250 -502 c138 -276 259 -511 268 -523 48 -57 116 -88 248 -115 61 -12 217 -53
270 -71 53 -18 99 -27 107 -22 4 3 8 35 8 71 0 37 7 91 16 122 44 156 69 225
90 251 7 8 16 27 19 43 6 23 4 27 -16 27 -12 0 -45 6 -73 14 -77 22 -146 38
-198 47 -56 9 -108 35 -108 53 0 7 -105 224 -234 481 -152 304 -246 479 -268
502 -21 22 -103 69 -233 134 -110 55 -207 104 -215 109 -8 5 -49 25 -90 45
-41 20 -82 40 -90 45 -8 5 -49 25 -90 45 -41 20 -82 40 -90 45 -8 5 -95 48
-194 96 -193 94 -254 110 -306 80z m187 -156 c26 -12 84 -39 128 -62 44 -23
95 -48 114 -57 18 -9 115 -57 215 -107 99 -51 260 -131 355 -180 193 -97 235
-130 288 -229 18 -33 116 -228 220 -433 226 -450 253 -487 394 -531 19 -6 42
-11 51 -11 8 0 28 -10 43 -22 25 -19 27 -25 21 -67 -6 -46 -41 -145 -59 -168
-14 -19 -66 -16 -185 12 -153 37 -213 67 -251 126 -17 26 -129 242 -248 481
-285 569 -213 495 -768 772 -231 114 -443 223 -472 242 -93 59 -117 134 -67
207 14 21 35 42 47 48 31 13 117 2 174 -21z"/>
<path d="M8130 7933 c-31 -12 -126 -55 -140 -63 -8 -4 -240 -121 -515 -259
-306 -153 -513 -262 -532 -281 -21 -20 -113 -193 -267 -502 -130 -259 -236
-477 -236 -485 0 -17 -75 -52 -110 -53 -14 0 -45 -6 -70 -14 -67 -21 -175 -46
-200 -46 -19 0 -21 -4 -15 -27 3 -16 12 -35 19 -43 21 -25 47 -97 87 -240 8
-25 16 -81 19 -125 6 -91 4 -90 108 -60 133 39 229 63 287 74 50 9 110 29 153
49 74 35 94 67 352 586 l251 503 506 254 c278 139 518 264 534 278 35 33 80
121 86 171 9 65 -23 146 -82 204 -28 28 -69 57 -91 65 -45 15 -122 23 -144 14z
m136 -177 c36 -35 44 -50 44 -80 0 -69 -39 -115 -146 -172 -27 -14 -227 -115
-444 -224 -228 -115 -413 -214 -437 -234 -23 -20 -57 -58 -77 -84 -19 -27
-132 -241 -250 -477 -119 -235 -227 -443 -241 -461 -36 -46 -87 -71 -224 -105
-125 -31 -183 -36 -198 -16 -18 23 -53 122 -59 167 -8 58 10 75 104 100 149
38 169 65 429 584 182 363 223 437 263 477 40 40 120 83 559 302 281 141 524
258 539 260 79 12 93 8 138 -37z"/>
<path d="M3315 4513 c-3 -21 -10 -69 -16 -108 -5 -38 -14 -95 -20 -125 -6 -30
-15 -95 -20 -143 -4 -48 -11 -92 -14 -97 -5 -9 -16 -146 -34 -435 -11 -180 15
-735 39 -815 5 -19 10 -58 10 -86 0 -28 7 -73 15 -100 8 -27 15 -65 15 -85 0
-20 7 -56 15 -79 8 -23 15 -54 15 -68 0 -14 6 -48 14 -76 23 -83 37 -138 45
-181 4 -22 13 -50 19 -62 7 -12 12 -31 12 -43 0 -12 6 -36 14 -53 8 -18 16
-43 19 -57 3 -14 11 -41 17 -60 20 -55 39 -106 55 -150 8 -22 22 -59 31 -82 9
-24 22 -56 29 -73 7 -16 23 -55 35 -85 32 -78 125 -278 150 -320 4 -8 52 -103
105 -210 53 -107 100 -202 105 -210 4 -8 52 -103 105 -210 53 -107 100 -202
105 -210 4 -8 25 -51 46 -95 48 -99 107 -161 161 -170 21 -3 46 -10 55 -16 23
-12 73 -12 96 0 9 6 34 13 55 16 54 9 113 71 161 170 21 44 42 87 46 95 5 8
52 103 105 210 54 107 101 202 105 210 61 109 322 647 360 740 12 30 28 69 35
85 7 17 20 49 29 73 9 23 23 60 31 82 37 98 44 118 60 175 10 33 24 74 32 92
7 17 13 41 13 53 0 12 5 31 12 43 6 12 15 40 19 62 4 22 13 60 19 85 13 48 28
114 54 225 9 39 16 82 16 97 0 15 7 53 15 85 8 31 15 78 15 103 0 25 5 61 10
80 23 81 50 633 39 810 -20 321 -29 427 -38 465 -6 22 -11 60 -11 85 0 25 -5
61 -10 80 -10 31 -19 89 -36 215 -16 122 -18 125 -67 68 -77 -89 -259 -264
-332 -319 -97 -71 -100 -73 -195 -119 -141 -68 -188 -85 -257 -94 -29 -4 -55
-10 -58 -13 -3 -3 -6 -368 -5 -810 0 -702 -1 -808 -15 -834 -8 -16 -15 -35
-15 -43 0 -7 -26 -38 -58 -70 -50 -49 -66 -58 -120 -70 -53 -11 -71 -11 -124
0 -54 12 -70 21 -120 70 -32 32 -58 63 -58 70 0 8 -7 27 -15 43 -14 26 -15
132 -15 833 1 442 -2 808 -5 813 -3 6 -26 10 -50 10 -24 0 -59 6 -77 14 -18 8
-53 22 -78 31 -40 16 -153 70 -205 99 -89 50 -321 258 -432 389 -17 20 -36 37
-42 37 -5 0 -13 -17 -16 -37z m225 -334 c151 -128 288 -211 467 -284 64 -27
84 -54 89 -122 3 -32 6 -364 8 -738 3 -721 2 -711 49 -801 29 -56 127 -152
180 -178 87 -42 148 -51 225 -31 37 9 85 27 108 40 46 27 110 94 148 154 53
84 54 98 58 877 5 816 -3 753 89 793 217 93 349 174 482 293 120 107 135 105
156 -27 95 -580 52 -1391 -102 -1955 -8 -30 -27 -98 -41 -150 -42 -157 -148
-447 -223 -615 -79 -173 -601 -1214 -634 -1262 -34 -49 -88 -93 -115 -93 -10
0 -42 25 -71 56 -47 49 -84 118 -293 535 -132 263 -280 563 -329 666 -209 444
-355 932 -415 1398 -37 283 -41 347 -41 705 0 362 11 526 47 730 20 115 32
116 158 9z"/>
<path d="M2726 4475 c-11 -8 -31 -15 -45 -15 -14 -1 -37 -7 -51 -15 -14 -8
-36 -14 -50 -15 -14 0 -45 -6 -70 -14 -58 -18 -124 -35 -175 -45 -22 -4 -56
-12 -75 -18 -49 -16 -118 -33 -165 -42 -22 -4 -56 -12 -75 -18 -49 -16 -117
-33 -170 -43 -83 -16 -126 -36 -192 -90 -10 -8 -18 -19 -18 -24 0 -5 -6 -17
-13 -25 -7 -9 -22 -43 -32 -76 -10 -33 -24 -74 -32 -92 -7 -17 -13 -40 -13
-50 0 -10 -5 -24 -11 -30 -6 -6 -15 -29 -19 -50 -8 -39 -23 -85 -47 -140 -7
-17 -13 -40 -13 -50 0 -10 -4 -23 -9 -28 -6 -6 -14 -28 -20 -50 -10 -43 -26
-91 -48 -142 -7 -17 -13 -40 -13 -50 0 -10 -4 -23 -9 -28 -4 -6 -18 -44 -31
-85 -13 -41 -29 -89 -36 -107 -8 -17 -14 -39 -14 -50 0 -10 -7 -27 -15 -37 -8
-11 -15 -31 -15 -45 0 -14 -7 -35 -15 -45 -8 -11 -15 -30 -15 -43 0 -12 -6
-37 -14 -55 -17 -42 -35 -94 -46 -133 -8 -28 -21 -68 -40 -121 -8 -21 -41 -38
-495 -259 -121 -58 -227 -111 -235 -116 -8 -5 -22 -12 -30 -15 -49 -21 -230
-111 -253 -127 -45 -30 -87 -95 -87 -133 0 -18 -5 -36 -11 -40 -16 -10 8 -160
31 -191 63 -83 121 -113 217 -113 37 0 76 6 91 14 15 8 34 17 42 20 8 3 22 10
30 15 13 7 73 39 120 62 8 4 114 55 235 114 121 58 227 111 235 116 8 5 22 12
30 15 8 4 110 53 226 111 225 111 268 142 299 216 9 23 23 57 31 75 8 18 14
41 14 51 0 10 7 32 15 47 8 16 15 38 15 50 0 11 4 24 9 30 6 5 14 27 20 49 12
52 30 103 47 138 8 16 14 37 14 47 0 11 6 34 14 52 15 37 27 72 58 168 12 36
27 79 34 97 8 17 14 38 14 46 0 8 7 28 15 43 8 16 15 38 15 49 0 11 7 29 15
39 8 11 15 32 15 46 0 14 7 35 15 46 8 10 15 29 15 41 0 12 6 37 14 55 17 42
35 94 46 133 5 17 14 46 21 65 6 19 18 51 24 70 10 28 19 36 46 41 38 7 108
24 184 44 113 30 142 37 180 44 22 4 56 12 75 18 19 6 67 19 105 28 39 9 72
19 75 21 2 3 7 62 11 132 4 70 12 143 18 162 6 19 11 54 11 77 0 24 7 60 15
80 8 21 16 54 17 73 3 29 -1 35 -17 37 -11 2 -29 -4 -39 -12z m-121 -281 c-1
-112 -18 -158 -67 -182 -14 -6 -104 -32 -200 -56 -233 -60 -259 -68 -311 -105
-46 -34 -73 -65 -99 -116 -9 -16 -113 -322 -233 -680 -119 -357 -229 -673
-245 -701 -37 -63 -82 -95 -250 -176 -74 -36 -287 -141 -473 -232 -373 -184
-423 -206 -469 -206 -47 0 -111 35 -148 81 l-33 42 19 34 c24 46 78 91 156
129 35 18 241 120 458 227 l395 195 66 69 66 70 222 669 c122 368 239 703 259
744 33 67 42 77 89 100 29 15 114 41 190 59 76 19 190 47 253 64 63 16 133 33
155 38 22 4 60 15 85 23 25 8 61 14 80 13 l35 -2 0 -101z"/>
<path d="M6195 4480 c-7 -11 1 -50 21 -103 8 -20 14 -56 14 -80 0 -23 5 -58
11 -77 6 -19 14 -92 18 -162 4 -70 9 -129 11 -132 3 -2 37 -12 75 -21 39 -9
95 -23 125 -30 30 -8 83 -21 118 -29 34 -9 89 -23 122 -31 33 -8 86 -22 118
-30 31 -8 66 -16 76 -17 12 -2 24 -17 33 -43 7 -22 25 -74 39 -115 14 -41 29
-89 33 -105 4 -17 13 -40 19 -52 7 -12 12 -32 12 -45 0 -13 7 -32 15 -42 8
-11 15 -32 15 -46 0 -14 7 -35 15 -46 8 -10 15 -28 15 -39 0 -11 7 -33 15 -49
8 -15 15 -34 15 -42 0 -7 6 -28 14 -46 7 -18 23 -62 34 -98 29 -91 43 -130 58
-168 8 -18 14 -41 14 -52 0 -10 6 -31 14 -47 17 -35 35 -86 47 -138 6 -22 14
-44 20 -49 5 -6 9 -19 9 -29 0 -10 6 -33 13 -50 8 -18 22 -59 32 -92 44 -144
72 -172 269 -269 263 -129 301 -147 316 -156 12 -7 295 -145 490 -239 45 -22
65 -33 98 -51 9 -6 24 -13 32 -16 8 -3 27 -12 42 -20 39 -21 146 -18 199 5 73
33 129 104 129 164 0 30 4 40 20 44 14 4 20 14 20 32 0 15 -8 31 -20 39 -13 8
-20 23 -20 43 0 75 -55 127 -217 204 -65 31 -125 60 -133 66 -8 5 -22 12 -30
15 -22 9 -93 44 -110 54 -14 8 -334 164 -523 255 -77 37 -97 56 -97 92 0 10
-7 31 -15 47 -8 15 -15 35 -15 43 0 8 -6 29 -13 46 -24 55 -39 101 -47 140 -4
21 -13 44 -19 50 -6 6 -11 20 -11 32 0 11 -7 33 -15 49 -8 15 -15 35 -15 43 0
8 -6 29 -13 46 -8 18 -29 79 -47 137 -18 58 -38 119 -45 135 -24 61 -37 101
-45 135 -9 37 -25 86 -45 135 -21 52 -37 99 -45 135 -16 65 -96 290 -108 302
-7 7 -12 17 -12 22 0 12 -44 56 -56 56 -4 0 -15 6 -23 14 -22 18 -141 55 -246
75 -22 4 -60 13 -85 20 -25 7 -72 19 -105 27 -33 8 -81 21 -106 29 -26 8 -55
15 -64 15 -10 0 -41 6 -69 14 -28 8 -80 22 -116 31 -36 9 -85 22 -110 30 -25
7 -60 16 -77 20 -18 4 -35 11 -38 16 -8 12 -42 12 -50 -1z m331 -206 c55 -14
117 -29 139 -34 97 -21 444 -112 480 -126 50 -19 91 -57 117 -108 11 -22 120
-339 243 -705 122 -366 228 -679 234 -695 6 -15 39 -57 74 -93 66 -70 53 -63
857 -456 136 -67 220 -139 220 -190 0 -24 -57 -85 -101 -108 -45 -23 -82 -24
-135 -5 -93 33 -1052 510 -1081 538 -37 35 -113 205 -143 318 -6 25 -27 90
-47 145 -19 55 -100 296 -180 535 -87 262 -156 453 -174 480 -60 95 -110 119
-390 189 -143 36 -210 58 -226 72 -23 22 -36 72 -48 182 -11 96 4 102 161 61z"/>
<path d="M2635 3635 c-19 -42 -35 -79 -35 -82 0 -3 -7 -21 -16 -41 -45 -105
-60 -147 -74 -197 -4 -16 -12 -41 -17 -55 -11 -26 -32 -100 -52 -180 -7 -25
-16 -76 -21 -115 -5 -38 -14 -88 -20 -110 -6 -25 -9 -372 -9 -920 0 -744 2
-884 14 -905 8 -14 14 -33 15 -43 0 -30 55 -131 110 -204 75 -99 193 -182 330
-233 90 -33 312 -36 383 -5 18 7 57 23 87 35 30 12 64 28 75 36 19 14 19 16 3
42 -9 15 -42 77 -73 137 -31 61 -60 117 -64 125 -11 19 -98 204 -117 248 -61
140 -78 180 -121 297 -8 22 -21 54 -28 70 -7 17 -16 45 -19 62 -4 18 -12 35
-17 38 -5 4 -9 17 -9 30 0 13 -6 39 -14 57 -7 18 -21 60 -30 93 -10 33 -22 74
-28 90 -5 17 -14 51 -18 77 -5 26 -13 56 -19 67 -6 11 -11 30 -11 42 0 12 -6
45 -14 73 -19 66 -37 148 -46 211 -4 28 -13 75 -18 105 -21 105 -33 196 -42
295 -4 55 -13 129 -20 165 -10 57 -16 556 -8 714 4 76 -16 69 -57 -19z m-55
-756 c5 -30 14 -88 20 -129 70 -494 186 -974 316 -1309 14 -36 46 -118 71
-181 25 -63 82 -191 128 -285 93 -191 121 -264 112 -288 -16 -41 -216 -51
-327 -16 -90 28 -188 88 -247 153 -57 62 -116 176 -133 256 -18 86 -14 1645 5
1751 12 71 30 117 42 106 2 -3 8 -29 13 -58z"/>
<path d="M6285 3700 c-3 -5 -1 -78 5 -162 16 -237 -6 -671 -45 -883 -8 -44
-15 -96 -15 -116 0 -20 -7 -58 -15 -85 -8 -27 -15 -60 -15 -74 0 -26 -22 -128
-46 -216 -8 -28 -14 -61 -14 -73 0 -12 -5 -31 -11 -42 -6 -11 -14 -41 -19 -67
-4 -26 -13 -60 -18 -77 -6 -16 -18 -57 -28 -90 -9 -33 -23 -75 -30 -93 -8 -18
-14 -44 -14 -57 0 -13 -4 -26 -9 -30 -5 -3 -13 -20 -17 -38 -3 -17 -12 -45
-19 -62 -12 -28 -25 -61 -62 -160 -9 -22 -22 -55 -29 -72 -8 -18 -20 -48 -28
-65 -28 -68 -126 -280 -147 -318 -4 -8 -31 -62 -60 -120 -29 -58 -61 -116 -71
-129 -27 -35 -23 -45 28 -71 138 -68 243 -88 387 -73 230 25 431 168 538 383
16 32 29 67 29 77 1 10 7 29 15 43 21 38 22 1756 0 1845 -8 33 -14 77 -15 98
0 21 -7 54 -15 74 -8 19 -15 49 -15 65 0 16 -5 39 -12 51 -6 12 -15 38 -19 57
-4 19 -13 51 -19 70 -31 87 -39 108 -55 150 -9 25 -23 57 -31 72 -8 14 -14 31
-14 36 0 20 -70 162 -79 162 -6 0 -12 -4 -16 -10z m164 -826 c18 -60 29 -802
21 -1404 l-5 -395 -29 -70 c-72 -173 -176 -272 -347 -330 -56 -19 -93 -25
-163 -25 -118 0 -164 13 -172 47 -7 27 20 105 62 178 34 59 180 390 230 519
44 116 144 426 144 447 0 11 4 28 10 38 35 66 130 517 171 806 11 81 28 190
35 223 7 36 28 20 43 -34z"/>
</g>
</svg>
